<svg xmlns="http://www.w3.org/2000/svg" xmlns:xlink="http://www.w3.org/1999/xlink" viewBox="0 0 237.08 97.62"><defs><style>.cls-1{fill:none;}.cls-2{clip-path:url(#clip-path);}.cls-3{clip-path:url(#clip-path-2);}</style><clipPath id="clip-path" transform="translate(-0.01 -0.68)"><rect class="cls-1" x="0.24" y="0.58" width="236.77" height="97.42" transform="matrix(1, 0, 0, 1, -0.24, 0.58)"/></clipPath><clipPath id="clip-path-2" transform="translate(-0.01 -0.68)"><rect class="cls-1" x="0.24" y="0.58" width="236.77" height="97.42" transform="matrix(1, 0, 0, 1, -0.24, 0.58)"/></clipPath></defs><g id="Layer_2" data-name="Layer 2"><g id="Layer_1-2" data-name="Layer 1"><g id="Artwork_43" data-name="Artwork 43"><g class="cls-2"><polygon points="0 2.09 0.46 96.28 31.59 96.13 31.47 72.94 12.5 73.03 12.15 2.03 0 2.09"/><g class="cls-3"><path d="M60.84,2.47,73,2.41l.27,56.12a108.43,108.43,0,0,1-1,15.77,54.27,54.27,0,0,1-3.34,13c-1.53,3.69-3.14,6.31-4.84,7.81a12.39,12.39,0,0,1-8.49,3.2,23.2,23.2,0,0,1-6.27-1,10.91,10.91,0,0,1-5.69-3.78,28.87,28.87,0,0,1-4.21-8.11,50.65,50.65,0,0,1-2.65-10.84,129.14,129.14,0,0,1-1.2-15.92L35.27,2.6l12.12-.06L47.67,60q0,7.71,1.85,12t5,4.31q3.13,0,4.91-4.29t1.72-12.11Z" transform="translate(-0.01 -0.68)"/><polygon points="120.75 1.5 132.91 1.44 133.07 34.4 146.35 34.34 146.19 1.38 158.4 1.32 158.86 95.51 146.65 95.57 146.46 57.46 133.18 57.53 133.37 95.63 121.21 95.69 120.75 1.5"/><path d="M79.2,63.68l11.56,0A42.53,42.53,0,0,0,92.34,73.9q1.91,5.7,5.4,5.69c1.73,0,3.07-1,4-2.94a15.67,15.67,0,0,0,1.37-6.8,15.3,15.3,0,0,0-1.38-6.54c-.9-1.93-3-3.73-6.25-5.43A25.53,25.53,0,0,1,84,46.5c-2.31-4.74-3.49-10.81-3.52-18.17A51.82,51.82,0,0,1,82.19,14.6,23.19,23.19,0,0,1,87.43,4.42Q90.94.72,97.08.68a12.62,12.62,0,0,1,11.53,6.66c2.66,4.46,4.4,13.18,5,23L102,30.35c-.33-4.24-1-7.33-2-9.25S97.68,18.22,96,18.23a3.41,3.41,0,0,0-3.18,2.17,11.61,11.61,0,0,0-1,5.24,9.1,9.1,0,0,0,.91,4.05q.87,1.85,4.09,3.44,8,4.08,11.46,8.26a26.51,26.51,0,0,1,5.07,10.42,57.21,57.21,0,0,1,1.64,13.94,63.05,63.05,0,0,1-2,16.71c-1.36,5.1-3.3,9-5.79,11.63a12.53,12.53,0,0,1-9.45,4q-10,.06-14-9.18c-2.6-6.15-4.1-15.71-4.49-25.22" transform="translate(-0.01 -0.68)"/><polygon points="171.5 65.23 171.41 45.55 173.06 45.54 173.1 53.29 176.36 53.28 176.32 45.52 177.98 45.52 178.08 65.2 176.41 65.21 176.37 56.6 173.12 56.61 173.16 65.22 171.5 65.23"/><path d="M187.21,65.84H185.4l-.73-4.48-3.29,0-.65,4.48H179l3.11-19.7h1.75Zm-3.09-7.78L183,50.76l-1.08,7.31Z" transform="translate(-0.01 -0.68)"/><polygon points="188.1 65.15 188 45.47 189.62 45.46 193.04 58.6 192.98 45.44 194.53 45.44 194.62 65.12 192.95 65.13 189.58 52.31 189.64 65.14 188.1 65.15"/><path d="M196.28,46.11l3,0a2.82,2.82,0,0,1,1.57.37,3.9,3.9,0,0,1,1.25,1.81,14.42,14.42,0,0,1,.8,3.18,33.35,33.35,0,0,1,.29,4.66,29.8,29.8,0,0,1-.23,4.18,13.85,13.85,0,0,1-.86,3.49A4,4,0,0,1,201,65.36a2.4,2.4,0,0,1-1.47.42h-3.12l-.09-19.68ZM198,49.43l.07,13h1.24a1.91,1.91,0,0,0,1-.21,1.79,1.79,0,0,0,.67-.81,7.24,7.24,0,0,0,.42-1.91,29,29,0,0,0,.15-3.61,27.72,27.72,0,0,0-.18-3.5,7.75,7.75,0,0,0-.48-1.9,1.81,1.81,0,0,0-.77-.92,3.12,3.12,0,0,0-1.37-.18Z" transform="translate(-0.01 -0.68)"/><polygon points="204.65 65.07 204.55 45.39 207.04 45.38 208.59 58.8 210 45.36 212.49 45.35 212.59 65.03 211.05 65.04 210.97 49.54 209.41 65.05 207.81 65.06 206.11 49.57 206.19 65.06 204.65 65.07"/><path d="M221.66,65.67h-1.81l-.74-4.47h-3.28l-.66,4.48h-1.76l3.1-19.7h1.76Zm-3.1-7.78-1.16-7.3-1.08,7.31Z" transform="translate(-0.01 -0.68)"/><path d="M222.44,46l3,0a2.82,2.82,0,0,1,1.57.37,3.94,3.94,0,0,1,1.24,1.81,14.39,14.39,0,0,1,.81,3.18,35.07,35.07,0,0,1,.29,4.66,28.44,28.44,0,0,1-.24,4.19,13.65,13.65,0,0,1-.86,3.49,3.85,3.85,0,0,1-1.16,1.57,2.39,2.39,0,0,1-1.46.42l-3.12,0L222.44,46Zm1.67,3.32.07,13.05h1.23a2,2,0,0,0,1-.21,1.85,1.85,0,0,0,.67-.81,7.57,7.57,0,0,0,.42-1.91,29,29,0,0,0,.15-3.6,27.43,27.43,0,0,0-.19-3.51,7,7,0,0,0-.48-1.9,1.81,1.81,0,0,0-.77-.92,3.4,3.4,0,0,0-1.36-.18Z" transform="translate(-0.01 -0.68)"/><polygon points="230.82 64.94 230.73 45.26 236.82 45.23 236.84 48.56 232.4 48.59 232.42 52.95 236.55 52.93 236.57 56.24 232.44 56.26 232.47 61.62 237.06 61.6 237.08 64.91 230.82 64.94"/><path d="M176.8,88.22l1.58,1.17a13.05,13.05,0,0,1-1.18,4.68,2.44,2.44,0,0,1-2.13,1.54c-1.06,0-1.94-.86-2.64-2.59a20.37,20.37,0,0,1-1.07-7.16,21.44,21.44,0,0,1,1-7.46c.69-1.78,1.59-2.66,2.71-2.67s1.78.69,2.41,2.08a12.63,12.63,0,0,1,.83,3.53l-1.6.92a6.36,6.36,0,0,0-.6-2.35c-.31-.58-.68-.86-1.1-.86-.6,0-1.08.52-1.45,1.54a16.15,16.15,0,0,0-.53,5,16.71,16.71,0,0,0,.58,5.18c.36,1,.84,1.56,1.42,1.56s.81-.33,1.11-1a9.65,9.65,0,0,0,.66-3.08" transform="translate(-0.01 -0.68)"/><path d="M179.42,85.77a27.51,27.51,0,0,1,.35-4.93,13.3,13.3,0,0,1,.73-2.64,5.31,5.31,0,0,1,1-1.74,2.42,2.42,0,0,1,1.73-.76c1.18,0,2.13.86,2.85,2.62a20,20,0,0,1,1.1,7.32,19.94,19.94,0,0,1-1,7.3c-.69,1.75-1.63,2.64-2.81,2.64s-2.15-.86-2.86-2.59a19.87,19.87,0,0,1-1.1-7.22m1.67-.14a14.82,14.82,0,0,0,.66,5c.42,1.12,1,1.67,1.6,1.67s1.18-.56,1.59-1.68a15.27,15.27,0,0,0,.59-5,15,15,0,0,0-.63-4.93c-.4-1.08-.94-1.62-1.61-1.62s-1.21.56-1.61,1.66a15.21,15.21,0,0,0-.59,5" transform="translate(-0.01 -0.68)"/><polygon points="195.98 94.51 195.88 75.28 198.31 75.27 199.83 88.37 201.21 75.25 203.64 75.24 203.73 94.47 202.23 94.48 202.16 79.34 200.63 94.48 199.07 94.49 197.41 79.37 197.49 94.5 195.98 94.51"/><polygon points="205.34 94.46 205.25 75.23 211.21 75.2 211.22 78.46 206.89 78.48 206.91 82.74 210.94 82.72 210.96 85.96 206.93 85.98 206.95 91.21 211.44 91.19 211.46 94.43 205.34 94.46"/><polygon points="214.63 94.42 214.56 78.45 212.18 78.46 212.16 75.2 218.53 75.17 218.55 78.43 216.18 78.44 216.26 94.41 214.63 94.42"/><rect x="219.59" y="75.84" width="1.62" height="19.23" transform="translate(-0.42 0.4) rotate(-0.28)"/><path d="M227.91,88l1.58,1.17a13.23,13.23,0,0,1-1.19,4.68,2.42,2.42,0,0,1-2.12,1.54c-1.07,0-2-.86-2.64-2.59a20.14,20.14,0,0,1-1.07-7.16,21.44,21.44,0,0,1,1-7.46c.69-1.78,1.59-2.66,2.71-2.67s1.78.69,2.4,2.08a12.58,12.58,0,0,1,.84,3.53l-1.6.92a6.56,6.56,0,0,0-.6-2.35c-.3-.58-.67-.86-1.1-.86-.6,0-1.08.52-1.45,1.54a16.15,16.15,0,0,0-.53,5,17.23,17.23,0,0,0,.57,5.19c.38,1,.85,1.55,1.43,1.55s.81-.33,1.11-1a9.65,9.65,0,0,0,.66-3.08" transform="translate(-0.01 -0.68)"/><path d="M188.08,88.61h1.58a8.08,8.08,0,0,0,.59,2.79,1.34,1.34,0,0,0,1.18.9,1.29,1.29,0,0,0,1.18-.8,4,4,0,0,0,.39-1.86,3.59,3.59,0,0,0-.17-1.16,2,2,0,0,0-.59-.83c-.19-.15-.63-.43-1.31-.84a4.31,4.31,0,0,1-1.83-1.89,9.09,9.09,0,0,1-.76-3.86,10.52,10.52,0,0,1,.33-2.75,4.26,4.26,0,0,1,1-2,2.1,2.1,0,0,1,1.57-.68,2.44,2.44,0,0,1,2.29,1.57,11.3,11.3,0,0,1,.83,4.4h-1.63a5.74,5.74,0,0,0-.46-2.13,1.07,1.07,0,0,0-1-.64,1.21,1.21,0,0,0-1.1.69,2.41,2.41,0,0,0-.25,1.2,2.63,2.63,0,0,0,.24,1.17,3.7,3.7,0,0,0,1.5,1.28,5.85,5.85,0,0,1,1.76,1.37,5.05,5.05,0,0,1,.89,2,12.11,12.11,0,0,1,.34,3.07,11.79,11.79,0,0,1-.37,3.09,4.75,4.75,0,0,1-1.07,2.15,2.41,2.41,0,0,1-1.75.71,2.56,2.56,0,0,1-2.35-1.67,15.53,15.53,0,0,1-1-5.28" transform="translate(-0.01 -0.68)"/><path d="M230.46,88.41H232a7.93,7.93,0,0,0,.6,2.79,1.32,1.32,0,0,0,1.17.89,1.27,1.27,0,0,0,1.18-.8,4.18,4.18,0,0,0,.39-1.86,3.89,3.89,0,0,0-.17-1.16,2.05,2.05,0,0,0-.59-.83c-.19-.15-.62-.43-1.3-.84a4.31,4.31,0,0,1-1.84-1.88,9.17,9.17,0,0,1-.76-3.87,10.16,10.16,0,0,1,.34-2.75,4.21,4.21,0,0,1,1-2,2.1,2.1,0,0,1,1.57-.68A2.46,2.46,0,0,1,235.91,77a11.11,11.11,0,0,1,.83,4.4h-1.63a5.63,5.63,0,0,0-.46-2.12,1.09,1.09,0,0,0-1-.65,1.22,1.22,0,0,0-1.1.7,2.39,2.39,0,0,0-.25,1.19,2.47,2.47,0,0,0,.25,1.17A3.45,3.45,0,0,0,234,83a5.86,5.86,0,0,1,1.76,1.38,5.23,5.23,0,0,1,.9,1.94A12.64,12.64,0,0,1,237,89.4a11.79,11.79,0,0,1-.37,3.09,4.7,4.7,0,0,1-1.07,2.15,2.38,2.38,0,0,1-1.75.71,2.55,2.55,0,0,1-2.34-1.67,15.48,15.48,0,0,1-1-5.27" transform="translate(-0.01 -0.68)"/><path d="M195.35,30.75c0-.42,0-.82,0-1.23,0-.9-.05-1.74-.07-2.41-.1-3.09-.48-6.29-1.67-7.62a6.46,6.46,0,0,0,.88-1.7,18.47,18.47,0,0,0,.93-6.44,21.3,21.3,0,0,0-.66-5.45,6.69,6.69,0,0,0-1.69-3.31,5,5,0,0,0-3.38-.92l-6.14,0,.16,34.64,2.92,0-.07-14.46h3.26c1.58,0,2.17,1.57,2.41,5.18.05.79.09,1.64.12,2.49,0,.42,0,.82,0,1.24a44.31,44.31,0,0,0,.42,5.52h3.15a25.55,25.55,0,0,1-.57-5.53m-6.66-14.42h-2.17l0-8.79,2.28,0a10.23,10.23,0,0,1,2.13.12A2.08,2.08,0,0,1,192,9a8.4,8.4,0,0,1,.4,2.82,9.61,9.61,0,0,1-.28,2.6,2.8,2.8,0,0,1-.81,1.47,5,5,0,0,1-2.62.44" transform="translate(-0.01 -0.68)"/><polygon points="171.36 35.7 171.19 1.08 181.1 1.04 181.13 6.89 174.14 6.93 174.18 15.13 180.21 15.1 180.24 20.94 174.21 20.97 174.28 35.69 171.36 35.7"/><polygon points="198.27 35.57 198.1 0.95 208.81 0.9 208.84 6.76 201.04 6.8 201.08 14.47 208.34 14.43 208.37 20.26 201.11 20.3 201.15 29.72 209.23 29.68 209.26 35.52 198.27 35.57"/><path d="M211,24.26h2.83a14.8,14.8,0,0,0,1.07,5A2.38,2.38,0,0,0,217,30.87a2.27,2.27,0,0,0,2.12-1.44,7.21,7.21,0,0,0,.7-3.34,6.35,6.35,0,0,0-.31-2.09,3.51,3.51,0,0,0-1.06-1.5A23.52,23.52,0,0,0,216.08,21a8,8,0,0,1-3.31-3.41,16.47,16.47,0,0,1-1.37-7,19.19,19.19,0,0,1,.6-4.95,7.93,7.93,0,0,1,1.79-3.52A3.84,3.84,0,0,1,216.63,1a4.39,4.39,0,0,1,4.11,2.84,20,20,0,0,1,1.51,7.93l-2.94,0a10.42,10.42,0,0,0-.82-3.84,2,2,0,0,0-1.86-1.15,2.19,2.19,0,0,0-2,1.26,4.15,4.15,0,0,0-.45,2.14,4.7,4.7,0,0,0,.44,2.11,6.41,6.41,0,0,0,2.69,2.3A10.88,10.88,0,0,1,220.5,17a9.58,9.58,0,0,1,1.62,3.5,22.57,22.57,0,0,1,.6,5.52,22.09,22.09,0,0,1-.66,5.57,8.49,8.49,0,0,1-1.94,3.88A4.31,4.31,0,0,1,217,36.79q-2.74,0-4.23-3c-1-2-1.6-5.63-1.8-9.51" transform="translate(-0.01 -0.68)"/><polygon points="225.22 35.44 225.05 0.82 227.97 0.81 228.04 14.43 233.76 14.41 233.69 0.78 236.61 0.77 236.78 35.38 233.86 35.4 233.79 20.26 228.06 20.29 228.14 35.43 225.22 35.44"/></g></g></g></g></g></svg>